<?xml version="1.0" standalone="no"?>
<!DOCTYPE svg PUBLIC "-//W3C//DTD SVG 20010904//EN"
 "http://www.w3.org/TR/2001/REC-SVG-20010904/DTD/svg10.dtd">
<svg version="1.0" xmlns="http://www.w3.org/2000/svg"
 width="448.000000pt" height="462.000000pt" viewBox="0 0 448.000000 462.000000"
 preserveAspectRatio="xMidYMid meet">

<g transform="translate(0.000000,462.000000) scale(0.100000,-0.100000)"
fill="#000000" stroke="none">
<path d="M1645 4275 c-76 -38 -105 -83 -105 -165 0 -60 1 -62 51 -112 l50 -50
-16 -42 c-25 -62 -43 -118 -47 -146 -2 -14 -10 -25 -18 -25 -8 0 -17 11 -20
25 -9 44 -41 93 -102 156 -103 107 -248 161 -365 135 -83 -19 -137 -47 -198
-102 -76 -70 -99 -123 -99 -229 -1 -69 4 -94 22 -131 30 -61 106 -137 159
-161 23 -10 44 -22 47 -27 3 -4 -9 -21 -26 -37 -42 -40 -132 -154 -159 -200
-98 -171 -139 -331 -139 -535 0 -90 6 -136 37 -292 3 -15 9 -30 14 -33 5 -3 9
-12 9 -20 0 -20 56 -137 96 -199 21 -33 34 -68 37 -102 8 -71 29 -107 108
-185 57 -56 277 -229 327 -257 11 -6 10 -14 -7 -42 -45 -74 -17 -183 61 -234
28 -19 38 -32 38 -53 0 -27 18 -86 33 -109 8 -13 -1 -43 -13 -43 -5 0 -24 9
-42 19 -46 27 -114 43 -149 36 -63 -14 -128 -100 -129 -170 0 -105 93 -219
230 -283 48 -22 69 -26 160 -26 99 -1 109 1 171 31 36 18 87 51 112 74 51 44
46 44 147 16 30 -8 95 -21 143 -28 l88 -13 -6 -41 c-4 -22 -11 -56 -16 -75
-31 -125 -49 -214 -49 -247 0 -86 106 -183 198 -183 43 0 136 50 177 97 36 40
144 260 200 408 15 39 31 79 35 90 5 11 11 30 15 42 3 12 34 50 68 85 61 61
112 148 136 228 20 69 30 197 21 277 -10 89 -15 82 85 123 136 56 374 201 457
278 52 48 79 93 94 158 15 67 5 113 -38 168 -28 35 -30 41 -17 60 47 74 88
172 120 291 19 67 19 360 1 435 -38 155 -98 284 -186 405 -52 70 -188 199
-271 255 l-80 55 -11 80 c-18 133 -57 215 -140 299 -101 101 -242 139 -368
101 -53 -16 -131 -62 -156 -92 -30 -36 -60 -95 -60 -118 0 -38 -17 -39 -63 -3
-94 75 -202 131 -324 168 -95 29 -97 31 -106 86 -17 104 -134 172 -222 129z
m138 -67 c27 -24 38 -42 40 -67 2 -36 -8 -45 -58 -56 -16 -4 -47 -25 -68 -48
-43 -47 -55 -45 -94 13 -36 52 -31 101 15 150 34 35 44 40 84 40 36 0 52 -6
81 -32z m943 -139 c137 -25 245 -128 299 -284 14 -40 22 -116 13 -121 -5 -3
-34 4 -63 16 -52 21 -85 22 -85 1 0 -5 51 -35 113 -65 306 -153 500 -385 578
-696 31 -123 31 -329 -1 -455 -62 -245 -209 -435 -430 -557 -111 -61 -304
-120 -431 -133 -76 -8 -94 -16 -86 -39 8 -21 43 -20 166 4 270 54 488 168 624
326 21 24 44 44 52 44 26 0 49 -53 49 -111 -1 -102 -46 -155 -234 -279 -94
-61 -317 -176 -354 -182 -15 -2 -22 5 -29 30 -7 22 -16 32 -30 32 -17 0 -18
-5 -13 -37 16 -109 28 -232 24 -245 -5 -12 -70 -35 -193 -68 -42 -11 -144 -28
-245 -40 -285 -34 -690 28 -927 142 -45 21 -63 36 -63 49 0 20 34 27 45 9 3
-5 15 -10 26 -10 45 0 9 38 -112 120 -261 176 -449 332 -483 400 -38 74 -29
147 25 201 38 38 41 39 107 39 85 0 167 -37 297 -135 76 -57 198 -157 215
-175 33 -36 186 -163 206 -170 14 -6 59 -10 100 -10 59 0 76 3 81 16 8 22 -16
36 -51 29 -44 -8 -122 5 -143 24 -325 290 -416 361 -548 429 -63 33 -78 37
-150 37 -69 0 -85 -3 -117 -25 -21 -14 -43 -35 -49 -48 -19 -35 -37 -23 -75
47 -181 334 -136 780 110 1079 56 69 114 122 223 205 41 32 60 52 57 62 -9 23
-23 18 -96 -35 -38 -27 -72 -50 -77 -50 -26 0 -106 44 -145 80 -61 57 -88 117
-88 200 0 84 28 146 89 199 74 66 125 85 228 85 83 1 95 -2 153 -32 35 -18 83
-50 105 -72 45 -41 102 -129 112 -171 6 -23 2 -28 -49 -50 -56 -23 -75 -44
-57 -62 5 -5 28 -1 57 13 266 118 673 188 936 161 115 -12 189 -25 291 -51 36
-10 51 -10 60 -1 8 8 7 15 -3 25 -16 15 -152 50 -235 60 -98 13 -105 16 -105
42 0 52 53 125 123 169 22 14 96 38 138 44 3 1 32 -4 65 -10z m-896 -46 c-36
-5 -100 -55 -100 -80 0 -7 -4 -13 -10 -13 -19 0 -10 25 21 63 28 34 35 37 77
35 41 -1 42 -2 12 -5z m164 -28 c18 -14 39 -25 47 -25 8 0 23 -8 34 -16 19
-14 17 -15 -20 -9 -22 4 -45 13 -51 21 -17 21 -27 17 -65 -22 -34 -36 -153
-119 -199 -140 -87 -41 -112 -41 -103 -1 10 48 29 69 90 100 35 17 90 53 121
80 64 55 88 57 146 12z m174 -71 c12 -8 22 -21 22 -27 -1 -23 -54 -51 -119
-63 -79 -15 -107 -6 -66 22 15 10 44 34 64 51 40 36 66 41 99 17z m62 -54 c12
-8 11 -10 -7 -10 -13 0 -23 5 -23 10 0 13 11 13 30 0z m-291 -29 c9 -6 0 -11
-30 -14 -24 -4 -62 -9 -84 -12 -37 -5 -36 -4 15 14 63 22 79 24 99 12z m-537
-2364 c28 -22 28 -22 13 -67 -8 -25 -17 -58 -20 -73 -7 -35 -23 -31 -52 13
-27 38 -29 79 -8 120 19 36 31 37 67 7z m80 -155 c90 -50 279 -108 428 -132
41 -7 99 -16 129 -21 30 -5 132 -9 226 -9 205 0 362 21 530 70 38 11 73 20 77
20 16 0 7 -78 -17 -145 -76 -209 -218 -297 -549 -336 -126 -15 -280 1 -418 43
-29 8 -46 24 -77 72 -77 119 -191 207 -285 221 -50 8 -54 12 -73 65 -12 33
-18 170 -8 170 2 0 19 -8 37 -18z m-170 -262 c49 -14 82 -43 83 -71 0 -29 24
-31 39 -4 47 84 69 92 154 53 54 -25 158 -126 187 -182 l20 -38 -44 -39 c-55
-49 -151 -95 -216 -103 -129 -17 -276 51 -354 162 -32 46 -38 126 -13 172 31
56 71 70 144 50z m1338 -272 c0 -7 -7 -26 -15 -42 -8 -15 -15 -32 -15 -37 0
-5 -9 -31 -21 -57 -12 -26 -25 -56 -29 -67 -48 -117 -136 -278 -167 -306 -41
-36 -91 -59 -126 -59 -60 0 -139 59 -152 113 -5 21 54 307 75 361 8 23 15 26
57 26 47 0 177 20 258 40 22 5 52 12 68 16 15 3 30 10 33 15 8 14 34 11 34 -3z"/>
<path d="M2865 3385 c-182 -44 -285 -159 -285 -315 0 -187 143 -290 400 -290
226 1 362 64 405 188 24 73 17 141 -27 228 -73 150 -301 237 -493 189z m246
-46 c88 -29 110 -42 162 -94 75 -74 104 -181 74 -267 -37 -106 -155 -157 -362
-158 -155 0 -241 27 -311 97 -57 57 -73 184 -33 268 66 140 290 213 470 154z"/>
<path d="M2765 3206 c-41 -18 -65 -57 -65 -105 0 -32 6 -44 35 -70 65 -57 144
-34 175 50 11 30 10 40 -4 67 -29 56 -89 81 -141 58z"/>
<path d="M1545 3284 c-11 -2 -45 -9 -75 -15 -82 -17 -193 -71 -248 -123 -68
-64 -102 -133 -109 -222 -22 -280 230 -389 659 -285 112 27 226 108 269 193
31 61 30 174 -4 248 -45 101 -147 177 -267 200 -51 10 -184 12 -225 4z m286
-63 c121 -46 191 -146 192 -271 0 -78 -18 -122 -70 -171 -91 -86 -268 -139
-465 -139 -157 0 -273 50 -313 134 -36 76 -34 180 6 259 45 87 167 170 289
195 30 7 64 14 75 16 11 3 67 3 125 2 78 -2 120 -9 161 -25z"/>
<path d="M1753 3139 c-71 -21 -98 -121 -46 -173 31 -32 61 -40 111 -33 52 9
82 48 82 109 0 39 -4 50 -31 72 -17 14 -37 26 -44 26 -7 0 -19 2 -27 4 -7 2
-27 0 -45 -5z"/>
<path d="M2321 3007 c-47 -15 -101 -71 -101 -105 0 -45 38 -82 90 -89 52 -7
70 -18 70 -45 0 -13 6 -18 18 -16 12 3 16 12 14 30 -2 23 4 30 42 46 50 23 66
45 66 95 0 73 -100 116 -199 84z"/>
<path d="M2547 2635 c-32 -29 -69 -32 -111 -10 -27 14 -31 14 -52 -6 -31 -29
-105 -37 -138 -15 -33 21 -46 20 -46 -3 0 -12 15 -26 44 -39 40 -19 44 -25 51
-69 10 -68 27 -98 72 -121 73 -39 153 32 153 135 0 50 8 73 24 73 18 0 56 43
56 63 0 24 -20 21 -53 -8z m-93 -65 c22 -8 26 -16 26 -50 0 -43 -18 -88 -44
-109 -13 -11 -22 -11 -45 -1 -29 12 -44 38 -56 96 -5 28 -2 34 27 52 38 23 56
26 92 12z"/>
<path d="M500 3769 c-14 -4 -40 -7 -57 -8 -32 -1 -33 -2 -33 -46 0 -41 2 -45
24 -45 41 0 121 80 99 100 -4 4 -19 4 -33 -1z"/>
<path d="M4013 3479 c-58 -49 -122 -120 -123 -135 0 -6 19 -17 43 -24 23 -7
55 -16 71 -21 16 -5 34 -9 41 -9 17 0 125 131 125 151 0 22 -65 79 -90 79 -10
0 -40 -18 -67 -41z"/>
</g>
</svg>
